<svg viewBox="0 0 40 40" fill="none" xmlns="http://www.w3.org/2000/svg">
    <g clip-path="url(#clip0_1_989)">
    <path d="M16.25 16.25V14C16.25 13.4033 16.4871 12.831 16.909 12.409C17.331 11.9871 17.9033 11.75 18.5 11.75H21.5C22.0967 11.75 22.669 11.9871 23.091 12.409C23.5129 12.831 23.75 13.4033 23.75 14C23.75 14.5967 23.5129 15.169 23.091 15.591C22.669 16.0129 22.0967 16.25 21.5 16.25H11.75V24.5C11.75 25.4946 12.1451 26.4484 12.8483 27.1517C13.5516 27.8549 14.5054 28.25 15.5 28.25H24.5C25.4946 28.25 26.4484 27.8549 27.1517 27.1517C27.8549 26.4484 28.25 25.4946 28.25 24.5V16.25H25.5" stroke="#111111" stroke-width="1.5"/>
    </g>
    <defs>
    <clipPath id="clip0_1_989">
    <rect width="24" height="24" fill="white" transform="translate(8 8)"/>
    </clipPath>
    </defs>
</svg>
