<svg width="24" height="25" viewBox="0 0 24 25" fill="none" xmlns="http://www.w3.org/2000/svg">
    <g clip-path="url(#clip0_1_1027)">
    <path d="M21 8.75H10M4.75002 8.75H3.00002" stroke="#111111" stroke-width="1.5"/>
    <path d="M7.50002 6.5C7.20454 6.5 6.91196 6.5582 6.63898 6.67127C6.36599 6.78434 6.11796 6.95008 5.90903 7.15901C5.70009 7.36794 5.53436 7.61598 5.42129 7.88896C5.30821 8.16194 5.25002 8.45453 5.25002 8.75C5.25002 9.04547 5.30821 9.33806 5.42129 9.61104C5.53436 9.88402 5.70009 10.1321 5.90903 10.341C6.11796 10.5499 6.36599 10.7157 6.63898 10.8287C6.91196 10.9418 7.20454 11 7.50002 11C8.09675 11 8.66905 10.7629 9.09101 10.341C9.51296 9.91903 9.75002 9.34674 9.75002 8.75C9.75002 8.15326 9.51296 7.58097 9.09101 7.15901C8.66905 6.73705 8.09675 6.5 7.50002 6.5Z" stroke="#111111" stroke-width="1.5"/>
    <path d="M3.00002 16.25H13.75M18.75 16.25H21" stroke="#111111" stroke-width="1.5"/>
    <path d="M16.5 14C15.9033 14 15.331 14.2371 14.909 14.659C14.4871 15.081 14.25 15.6533 14.25 16.25C14.25 16.8467 14.4871 17.419 14.909 17.841C15.331 18.2629 15.9033 18.5 16.5 18.5C17.0968 18.5 17.669 18.2629 18.091 17.841C18.513 17.419 18.75 16.8467 18.75 16.25C18.75 15.6533 18.513 15.081 18.091 14.659C17.669 14.2371 17.0968 14 16.5 14Z" stroke="#111111" stroke-width="1.5"/>
    </g>
    <defs>
    <clipPath id="clip0_1_1027">
    <rect width="24" height="24" fill="white" transform="translate(1.52588e-05 0.5)"/>
    </clipPath>
    </defs>
</svg>
